<?xml version="1.0" standalone="no"?>
<!DOCTYPE svg PUBLIC "-//W3C//DTD SVG 20010904//EN"
 "http://www.w3.org/TR/2001/REC-SVG-20010904/DTD/svg10.dtd">
<svg version="1.0" xmlns="http://www.w3.org/2000/svg"
 width="500.000000pt" height="500.000000pt" viewBox="0 0 500.000000 500.000000"
 preserveAspectRatio="xMidYMid meet">
<metadata>
Created by potrace 1.11, written by Peter Selinger 2001-2013
</metadata>
<g transform="translate(0.000000,500.000000) scale(0.100000,-0.100000)"
fill="#000000" stroke="none">
<path d="M0 2500 l0 -2500 2500 0 2500 0 0 2500 0 2500 -2500 0 -2500 0 0
-2500z m3369 2281 c13 -8 13 -34 -2 -192 -9 -101 -15 -184 -14 -184 6 -3 263
-231 269 -240 11 -15 8 -20 -86 -153 l-85 -121 69 -81 70 -80 0 -106 0 -105
253 -330 c138 -181 252 -338 252 -348 0 -18 -331 -391 -347 -391 -4 0 -107 57
-228 126 -121 69 -223 123 -227 121 -5 -2 -91 -8 -193 -11 l-185 -7 -78 95
-78 96 -69 0 -70 0 0 -212 0 -213 370 -358 c204 -198 370 -365 370 -372 0 -7
-6 -17 -12 -23 -7 -5 -411 -106 -898 -222 -487 -117 -886 -214 -888 -215 -2
-2 354 -183 791 -404 l794 -401 257 131 c255 130 257 131 279 113 12 -11 24
-20 26 -21 6 -3 -29 -246 -39 -270 l-10 -23 -912 0 -913 -1 -320 137 -321 137
0 32 0 33 196 77 c107 43 199 81 203 85 5 4 -32 94 -82 201 l-91 192 108 111
c413 424 963 998 960 1001 -2 3 -325 -29 -718 -71 -392 -41 -719 -73 -727 -70
-7 3 -13 13 -13 23 0 10 153 493 339 1073 300 936 341 1056 362 1066 13 6 323
35 689 64 l665 52 45 47 c25 25 82 86 127 134 44 48 85 87 90 87 4 0 14 -4 22
-9z"/>
<path d="M3221 4569 l-83 -90 -19 -121 c-10 -67 -17 -123 -16 -125 2 -1 44 39
94 90 l91 92 10 120 c6 66 10 121 9 122 -2 1 -40 -39 -86 -88z"/>
<path d="M2433 4405 c-342 -28 -625 -54 -628 -57 -4 -3 28 -65 70 -136 l77
-130 46 13 c26 8 220 64 431 125 l384 111 106 -71 c58 -38 107 -66 108 -62 9
29 39 253 34 256 -3 1 -286 -21 -628 -49z"/>
<path d="M3212 4247 c-56 -56 -102 -105 -102 -109 0 -10 280 -200 290 -196 5
2 41 48 79 103 55 77 68 102 58 111 -29 27 -193 170 -208 181 -13 10 -31 -4
-117 -90z"/>
<path d="M1740 4285 c0 -3 -111 -351 -246 -773 -136 -422 -248 -774 -251 -782
-2 -8 145 284 326 648 l330 664 -72 124 c-62 106 -87 141 -87 119z"/>
<path d="M2375 4137 c-209 -61 -382 -112 -384 -113 -2 -2 126 -231 285 -510
245 -431 289 -503 296 -483 4 13 48 281 98 594 49 314 93 582 96 598 3 15 2
26 -3 26 -4 -1 -179 -51 -388 -112z"/>
<path d="M2900 4187 c0 -5 300 -650 305 -655 3 -4 294 192 295 198 0 3 -26 35
-59 70 -44 49 -117 105 -287 221 -246 167 -254 172 -254 166z"/>
<path d="M2727 3567 c-54 -336 -97 -618 -97 -624 0 -9 20 -13 64 -13 l64 0
196 273 c108 151 196 277 196 281 0 8 -262 572 -303 652 l-22 44 -98 -613z"/>
<path d="M1727 3547 c-114 -231 -206 -422 -203 -424 6 -6 969 -174 983 -171 9
3 -544 990 -565 1009 -4 3 -101 -183 -215 -414z"/>
<path d="M3420 3593 l-95 -65 95 7 c52 3 96 8 98 9 2 2 2 28 0 58 l-3 55 -95
-64z"/>
<path d="M3401 3466 c-106 -10 -112 -12 -95 -27 37 -33 586 -429 582 -421 -11
27 -353 462 -362 461 -6 -1 -62 -7 -125 -13z"/>
<path d="M3027 3194 c-92 -130 -166 -239 -163 -241 5 -5 433 53 467 63 12 3
26 41 48 130 17 69 29 129 26 134 -5 9 -200 150 -206 150 -2 0 -80 -107 -172
-236z"/>
<path d="M3467 3223 c-8 -14 -107 -441 -107 -463 0 -12 10 -25 23 -31 19 -9
56 6 255 103 l233 113 -172 125 c-211 153 -226 163 -232 153z"/>
<path d="M1302 2688 c-101 -204 -182 -372 -180 -373 7 -7 1357 140 1350 147
-10 10 -965 590 -977 593 -5 2 -92 -163 -193 -367z"/>
<path d="M1715 3002 c17 -10 209 -127 428 -260 218 -133 400 -242 402 -242 3
0 4 84 3 187 l-3 187 -410 73 c-225 39 -419 72 -430 72 -16 1 -14 -3 10 -17z"/>
<path d="M3078 2912 l-237 -35 49 -61 48 -61 173 2 c95 2 174 5 176 7 4 3 43
172 43 183 0 2 -3 3 -7 2 -5 -1 -115 -17 -245 -37z"/>
<path d="M3903 2778 c-23 -56 -41 -103 -39 -105 2 -2 38 34 80 81 l76 84 -34
21 c-18 12 -35 21 -37 21 -2 0 -23 -46 -46 -102z"/>
<path d="M3671 2774 c-177 -85 -193 -96 -175 -108 67 -46 227 -127 234 -120
10 11 144 325 137 323 -1 0 -90 -43 -196 -95z"/>
<path d="M2077 1858 c-278 -288 -502 -524 -498 -526 7 -2 1672 395 1677 401 3
3 -655 641 -666 645 -4 2 -235 -232 -513 -520z"/>
<path d="M1540 1181 c0 -3 33 -78 75 -166 41 -88 112 -250 158 -360 l84 -200
569 -2 569 -3 -290 149 c-498 255 -1165 588 -1165 582z"/>
<path d="M1465 754 c-88 -35 -164 -65 -169 -67 -4 -1 99 -49 230 -105 131 -56
240 -100 242 -98 4 5 -126 317 -136 328 -4 3 -79 -23 -167 -58z"/>
<path d="M3455 534 l-160 -83 161 -1 162 0 6 68 c4 37 10 75 12 85 3 10 0 17
-8 16 -7 -1 -85 -39 -173 -85z"/>
</g>
</svg>
